<svg width="1874" height="121" viewBox="0 0 1874 121" fill="none" xmlns="http://www.w3.org/2000/svg">
<g clip-path="url(#clip0_101_774)">
<path d="M69.9854 32.7949L69.502 33.0098C66.709 30.4316 63.3431 28.3727 59.4043 26.833C55.5013 25.2933 51.2044 24.5234 46.5137 24.5234C42.002 24.5234 37.8662 25.2396 34.1064 26.6719C30.3467 28.0684 27.1061 30.1094 24.3848 32.7949C21.6992 35.4805 19.6045 38.7747 18.1006 42.6777C16.5967 46.5807 15.8447 51.0208 15.8447 55.998C15.8447 61.4766 16.5609 66.597 17.9932 71.3594C19.4255 76.0859 21.556 80.1859 24.3848 83.6592C27.2135 87.1325 30.7406 89.8717 34.9658 91.877C39.2269 93.8464 44.1862 94.8311 49.8438 94.8311C51.8848 94.8311 53.9258 94.6162 55.9668 94.1865C58.0078 93.7568 59.9593 93.1302 61.8213 92.3066C63.7191 91.4473 65.4915 90.4268 67.1387 89.2451C68.8216 88.0277 70.3434 86.6491 71.7041 85.1094L72.2949 85.4854L67.998 96.4424C65.3125 97.4808 62.3405 98.2686 59.082 98.8057C55.8594 99.3786 52.6009 99.665 49.3066 99.665C42.6823 99.665 36.613 98.7161 31.0986 96.8184C25.6201 94.8848 20.8936 92.1634 16.9189 88.6543C12.9801 85.1452 9.90072 80.9378 7.68066 76.0322C5.49642 71.0908 4.4043 65.6123 4.4043 59.5967C4.4043 56.195 4.83398 52.847 5.69336 49.5527C6.58854 46.2585 7.8776 43.1253 9.56055 40.1533C11.2435 37.1813 13.3203 34.46 15.791 31.9893C18.2617 29.4827 21.0726 27.3164 24.2236 25.4902C27.4105 23.6641 30.9017 22.2497 34.6973 21.2471C38.5286 20.2087 42.6644 19.6895 47.1045 19.6895C54.0153 19.6895 60.4248 20.7458 66.333 22.8584L69.9854 32.7949ZM92.3828 69.9629C93.099 70.0703 93.8151 70.1598 94.5312 70.2314C95.2832 70.2673 95.9993 70.2852 96.6797 70.2852C101.156 70.2852 104.539 69.0856 106.831 66.6865C109.159 64.2874 110.322 60.6888 110.322 55.8906C110.322 51.9518 109.391 48.8366 107.529 46.5449C105.703 44.2533 103 43.1074 99.4189 43.1074C98.2731 43.1074 97.2526 43.1611 96.3574 43.2686C95.498 43.3402 94.764 43.4297 94.1553 43.5371C93.4749 43.6803 92.8841 43.8236 92.3828 43.9668V69.9629ZM100.601 73.4541C99.8844 73.5615 99.1683 73.6331 98.4521 73.6689C97.7718 73.6689 97.0736 73.6689 96.3574 73.6689C95.7845 73.6689 95.1579 73.651 94.4775 73.6152C93.7972 73.5794 93.099 73.5257 92.3828 73.4541V76.0859C92.3828 79.2728 92.4186 82.0658 92.4902 84.4648C92.5618 86.8281 92.6514 88.8691 92.7588 90.5879C92.902 92.3066 93.0632 93.7568 93.2422 94.9385C93.4212 96.0843 93.6361 97.0332 93.8867 97.7852V98H81.4795V97.7852C81.7301 97.0332 81.945 96.0664 82.124 94.8848C82.3389 93.7031 82.5 92.2529 82.6074 90.5342C82.7507 88.7796 82.8581 86.7028 82.9297 84.3037C83.0013 81.9046 83.0371 79.0938 83.0371 75.8711V62.3359C83.0371 59.1133 83.0013 56.3203 82.9297 53.957C82.8581 51.5579 82.7507 49.499 82.6074 47.7803C82.5 46.0257 82.3389 44.5576 82.124 43.376C81.945 42.1943 81.7301 41.2275 81.4795 40.4756V40.2607C82.0524 40.2965 82.6611 40.3324 83.3057 40.3682C83.8428 40.404 84.4336 40.4398 85.0781 40.4756C85.7585 40.4756 86.4388 40.4756 87.1191 40.4756C88.265 40.4756 89.9658 40.3682 92.2217 40.1533C94.4775 39.9385 97.1273 39.8311 100.171 39.8311C103.25 39.8311 106.043 40.207 108.55 40.959C111.092 41.7109 113.258 42.7852 115.049 44.1816C116.875 45.5781 118.271 47.279 119.238 49.2842C120.241 51.2894 120.742 53.5273 120.742 55.998C120.742 57.9316 120.474 59.7041 119.937 61.3154C119.399 62.891 118.647 64.3232 117.681 65.6123C116.714 66.8656 115.568 67.9756 114.243 68.9424C112.918 69.9092 111.45 70.7507 109.839 71.4668L121.064 87.3115C122.031 88.6006 122.998 89.8359 123.965 91.0176C124.967 92.1992 125.916 93.2555 126.812 94.1865C127.707 95.1175 128.548 95.9053 129.336 96.5498C130.124 97.1585 130.786 97.5703 131.323 97.7852V98H117.251C117.251 97.6777 117.018 97.1227 116.553 96.335C116.123 95.5114 115.604 94.6699 114.995 93.8105C114.422 92.9154 113.831 92.056 113.223 91.2324C112.65 90.4089 112.22 89.8001 111.934 89.4062L100.601 73.4541ZM136.372 40.2607C139.881 40.2607 143.48 40.2607 147.168 40.2607C150.856 40.2249 154.276 40.1891 157.427 40.1533C160.578 40.0817 163.281 40.0101 165.537 39.9385C167.829 39.8669 169.333 39.7594 170.049 39.6162L167.954 45.417C166.987 45.1663 165.895 44.9336 164.678 44.7188C163.604 44.5397 162.297 44.3786 160.757 44.2354C159.253 44.0563 157.498 43.9668 155.493 43.9668C154.777 43.9668 153.953 44.0026 153.022 44.0742C152.091 44.11 151.196 44.1637 150.337 44.2354C149.334 44.307 148.314 44.3786 147.275 44.4502V65.666C150.176 65.6302 152.79 65.5586 155.117 65.4512C157.445 65.3438 159.432 65.2005 161.079 65.0215C163.013 64.8783 164.714 64.6813 166.182 64.4307L164.893 70.8223C162.923 70.5716 160.936 70.3568 158.931 70.1777C157.212 69.9987 155.314 69.8555 153.237 69.748C151.16 69.6048 149.173 69.5332 147.275 69.5332V93.918C150.605 93.918 153.667 93.7926 156.46 93.542C159.253 93.2555 161.688 92.9512 163.765 92.6289C166.2 92.235 168.402 91.7874 170.371 91.2861L169.136 98.3223C168.599 98.2865 167.721 98.2327 166.504 98.1611C165.322 98.1253 164.069 98.0895 162.744 98.0537C161.455 98.0537 160.238 98.0358 159.092 98C157.946 98 157.158 98 156.729 98H136.372V97.7852C136.623 97.0332 136.838 96.0664 137.017 94.8848C137.231 93.7031 137.393 92.2529 137.5 90.5342C137.643 88.7796 137.751 86.7028 137.822 84.3037C137.894 81.9046 137.93 79.0938 137.93 75.8711V62.3359C137.93 59.1133 137.894 56.3203 137.822 53.957C137.751 51.5579 137.643 49.499 137.5 47.7803C137.393 46.0257 137.231 44.5576 137.017 43.376C136.838 42.1943 136.623 41.2275 136.372 40.4756V40.2607ZM208.506 51.4863H207.432C207.217 50.8776 206.859 50.1077 206.357 49.1768C205.892 48.2458 205.247 47.3327 204.424 46.4375C203.636 45.5423 202.651 44.7904 201.47 44.1816C200.288 43.5371 198.874 43.2148 197.227 43.2148C195.973 43.2148 194.845 43.4297 193.843 43.8594C192.876 44.2533 192.052 44.8083 191.372 45.5244C190.692 46.2406 190.173 47.0999 189.814 48.1025C189.456 49.0693 189.277 50.1257 189.277 51.2715C189.277 53.1335 189.832 54.9059 190.942 56.5889C192.088 58.2718 193.503 59.9548 195.186 61.6377C196.868 63.2848 198.695 64.9499 200.664 66.6328C202.633 68.3158 204.46 70.0703 206.143 71.8965C207.826 73.7227 209.222 75.6562 210.332 77.6973C211.478 79.7383 212.051 81.9225 212.051 84.25C212.051 85.9688 211.729 87.7412 211.084 89.5674C210.475 91.3936 209.473 93.0407 208.076 94.5088C206.68 95.9769 204.889 97.1764 202.705 98.1074C200.521 99.0742 197.871 99.5576 194.756 99.5576C193.037 99.5576 191.39 99.4144 189.814 99.1279C188.275 98.8415 186.842 98.4834 185.518 98.0537C184.229 97.6598 183.065 97.2301 182.026 96.7646C181.024 96.2633 180.182 95.7979 179.502 95.3682L180.469 85.2168H181.597C181.955 86.4701 182.474 87.7233 183.154 88.9766C183.87 90.2298 184.73 91.3757 185.732 92.4141C186.771 93.4167 187.97 94.2402 189.331 94.8848C190.728 95.4935 192.321 95.7979 194.111 95.7979C195.365 95.7979 196.546 95.6009 197.656 95.207C198.766 94.7773 199.715 94.1865 200.503 93.4346C201.326 92.6826 201.971 91.7695 202.437 90.6953C202.902 89.5853 203.135 88.3499 203.135 86.9893C203.135 85.3779 202.812 83.8919 202.168 82.5312C201.523 81.1348 200.664 79.8099 199.59 78.5566C198.516 77.2676 197.298 76.0322 195.938 74.8506C194.613 73.6689 193.234 72.4694 191.802 71.252C190.369 70.0345 188.973 68.7992 187.612 67.5459C186.287 66.2568 185.088 64.8783 184.014 63.4102C182.939 61.9421 182.08 60.3844 181.436 58.7373C180.791 57.0544 180.469 55.2103 180.469 53.2051C180.469 51.0924 180.916 49.1947 181.812 47.5117C182.707 45.8288 183.888 44.4144 185.356 43.2686C186.825 42.0869 188.507 41.1917 190.405 40.583C192.303 39.9385 194.272 39.6162 196.313 39.6162C197.817 39.6162 199.214 39.7236 200.503 39.9385C201.828 40.1533 203.009 40.4219 204.048 40.7441C205.122 41.0306 206.053 41.335 206.841 41.6572C207.629 41.9437 208.273 42.1764 208.774 42.3555L208.506 51.4863ZM238.047 44.2354C234.788 44.2354 231.816 44.3786 229.131 44.665C226.481 44.9515 224.189 45.2559 222.256 45.5781C220.036 45.972 218.031 46.4017 216.24 46.8672L217.314 39.9385C217.852 40.0101 218.729 40.0638 219.946 40.0996C221.164 40.1354 222.435 40.1712 223.76 40.207C225.12 40.207 226.392 40.2249 227.573 40.2607C228.791 40.2607 229.632 40.2607 230.098 40.2607H255.503C255.933 40.2607 256.72 40.2607 257.866 40.2607C259.048 40.2249 260.301 40.207 261.626 40.207C262.951 40.1712 264.222 40.1354 265.439 40.0996C266.657 40.0638 267.534 40.0101 268.071 39.9385L269.146 46.8672C267.427 46.4017 265.457 45.972 263.237 45.5781C261.34 45.2559 259.048 44.9515 256.362 44.665C253.713 44.3786 250.723 44.2354 247.393 44.2354V75.8711C247.393 79.0938 247.428 81.9046 247.5 84.3037C247.572 86.7028 247.661 88.7796 247.769 90.5342C247.912 92.2529 248.073 93.7031 248.252 94.8848C248.431 96.0664 248.646 97.0332 248.896 97.7852V98H236.489V97.7852C236.74 97.0332 236.955 96.0664 237.134 94.8848C237.313 93.7031 237.474 92.2529 237.617 90.5342C237.76 88.7796 237.868 86.7028 237.939 84.3037C238.011 81.9046 238.047 79.0938 238.047 75.8711V44.2354ZM287.139 93.8105C290.469 93.8105 293.53 93.6852 296.323 93.4346C299.152 93.1481 301.623 92.8438 303.735 92.5215C306.206 92.1276 308.444 91.68 310.449 91.1787L309.214 98.3223C308.713 98.2865 307.853 98.2327 306.636 98.1611C305.454 98.1253 304.201 98.0895 302.876 98.0537C301.551 98.0537 300.316 98.0358 299.17 98C298.024 98 297.236 98 296.807 98H276.235V97.7852C276.486 97.0332 276.701 96.0664 276.88 94.8848C277.095 93.7031 277.256 92.2529 277.363 90.5342C277.507 88.7796 277.614 86.7028 277.686 84.3037C277.757 81.9046 277.793 79.0938 277.793 75.8711V62.3359C277.793 59.1133 277.757 56.3203 277.686 53.957C277.614 51.5579 277.507 49.499 277.363 47.7803C277.256 46.0257 277.095 44.5576 276.88 43.376C276.701 42.1943 276.486 41.2275 276.235 40.4756V40.2607H288.643V40.4756C288.392 41.2275 288.177 42.1943 287.998 43.376C287.819 44.5576 287.658 46.0257 287.515 47.7803C287.407 49.499 287.318 51.5579 287.246 53.957C287.174 56.3203 287.139 59.1133 287.139 62.3359V93.8105ZM354.814 79.8457C353.848 79.8457 352.63 79.8457 351.162 79.8457C349.73 79.8457 348.154 79.8457 346.436 79.8457C344.717 79.8457 342.944 79.8457 341.118 79.8457C339.292 79.8457 337.555 79.8636 335.908 79.8994C334.261 79.8994 332.757 79.9173 331.396 79.9531C330.036 79.9531 328.979 79.9531 328.228 79.9531L326.24 84.1426C325.381 85.8613 324.647 87.3652 324.038 88.6543C323.429 89.9076 322.928 91.0176 322.534 91.9844C322.14 92.9512 321.854 93.7926 321.675 94.5088C321.496 95.1891 321.406 95.8337 321.406 96.4424C321.406 96.8363 321.424 97.1406 321.46 97.3555C321.496 97.5345 321.549 97.6777 321.621 97.7852V98H312.168V97.7852C312.419 97.5345 312.812 96.9974 313.35 96.1738C313.887 95.3145 314.495 94.276 315.176 93.0586C315.892 91.8411 316.644 90.4626 317.432 88.9229C318.255 87.3831 319.061 85.7897 319.849 84.1426L341.763 38.918H345.791L367.275 84.1426C368.099 85.8613 368.923 87.5085 369.746 89.084C370.605 90.6595 371.393 92.0739 372.109 93.3271C372.826 94.5446 373.452 95.5651 373.989 96.3887C374.526 97.1764 374.884 97.6419 375.063 97.7852V98H361.313C361.385 97.7135 361.421 97.4629 361.421 97.248C361.421 96.9974 361.421 96.7288 361.421 96.4424C361.421 95.6546 361.242 94.7057 360.884 93.5957C360.562 92.4857 360.15 91.3577 359.648 90.2119C359.183 89.0303 358.682 87.9023 358.145 86.8281C357.643 85.7539 357.231 84.8587 356.909 84.1426L354.814 79.8457ZM330.322 75.6562H333.599C335.103 75.6562 336.696 75.6562 338.379 75.6562C340.098 75.6204 341.816 75.6025 343.535 75.6025C345.254 75.6025 346.919 75.6025 348.53 75.6025C350.142 75.5667 351.592 75.5488 352.881 75.5488L341.763 51.8086L330.322 75.6562ZM433.232 98.752H431.138L388.438 56.75V75.8711C388.438 79.0938 388.455 81.9046 388.491 84.3037C388.527 86.7028 388.581 88.7796 388.652 90.5342C388.76 92.2529 388.885 93.7031 389.028 94.8848C389.207 96.0664 389.422 97.0332 389.673 97.7852V98H381.616V97.7852C381.867 97.0332 382.082 96.0664 382.261 94.8848C382.44 93.7031 382.583 92.2529 382.69 90.5342C382.798 88.7796 382.869 86.7028 382.905 84.3037C382.941 81.9046 382.959 79.0938 382.959 75.8711V62.3359C382.959 59.1133 382.941 56.3203 382.905 53.957C382.869 51.5579 382.798 49.499 382.69 47.7803C382.583 46.0257 382.44 44.5576 382.261 43.376C382.082 42.1943 381.867 41.2275 381.616 40.4756V40.2607H384.946L427.7 82.4775V62.3359C427.7 59.1133 427.682 56.3203 427.646 53.957C427.611 51.5579 427.539 49.499 427.432 47.7803C427.36 46.0257 427.253 44.5576 427.109 43.376C426.966 42.1943 426.769 41.2275 426.519 40.4756V40.2607H434.521V40.4756C434.271 41.2275 434.056 42.1943 433.877 43.376C433.734 44.5576 433.608 46.0257 433.501 47.7803C433.394 49.499 433.322 51.5579 433.286 53.957C433.25 56.3203 433.232 59.1133 433.232 62.3359V98.752ZM459.766 44.0742C459.73 47.0104 459.694 49.8571 459.658 52.6143C459.658 53.7959 459.64 55.0133 459.604 56.2666C459.604 57.484 459.587 58.7015 459.551 59.9189C459.551 61.1364 459.551 62.3001 459.551 63.4102C459.551 64.4844 459.551 65.4512 459.551 66.3105C459.551 68.1009 459.551 70.2673 459.551 72.8096C459.587 75.3161 459.622 77.8942 459.658 80.5439C459.694 83.1937 459.748 85.7539 459.819 88.2246C459.891 90.6595 459.98 92.7005 460.088 94.3477C460.446 94.4193 460.911 94.4909 461.484 94.5625C462.057 94.5983 462.648 94.652 463.257 94.7236C463.901 94.7594 464.528 94.7952 465.137 94.8311C465.745 94.8311 466.265 94.8311 466.694 94.8311C468.664 94.8311 470.651 94.7057 472.656 94.4551C474.697 94.2044 476.649 93.7389 478.511 93.0586C480.409 92.3424 482.181 91.3757 483.828 90.1582C485.475 88.9408 486.908 87.3831 488.125 85.4854C489.378 83.5518 490.345 81.2422 491.025 78.5566C491.742 75.8353 492.1 72.6305 492.1 68.9424C492.1 60.8141 490.148 54.5479 486.245 50.1436C482.378 45.7393 476.595 43.5371 468.896 43.5371C468.145 43.5371 467.339 43.555 466.479 43.5908C465.656 43.6266 464.832 43.6803 464.009 43.752C463.185 43.7878 462.397 43.8415 461.646 43.9131C460.929 43.9847 460.303 44.0384 459.766 44.0742ZM448.647 40.1533C449.507 40.1891 450.312 40.207 451.064 40.207C451.709 40.2428 452.336 40.2607 452.944 40.2607C453.553 40.2607 454.001 40.2607 454.287 40.2607C454.788 40.2607 455.684 40.2428 456.973 40.207C458.262 40.1712 459.712 40.1354 461.323 40.0996C462.97 40.028 464.689 39.9743 466.479 39.9385C468.306 39.8669 469.989 39.8311 471.528 39.8311C475.718 39.8311 479.71 40.3145 483.506 41.2812C487.301 42.248 490.632 43.8415 493.496 46.0615C496.396 48.2458 498.688 51.1283 500.371 54.709C502.054 58.2539 502.896 62.6403 502.896 67.8682C502.896 73.4899 501.929 78.2523 499.995 82.1553C498.062 86.0583 495.448 89.2451 492.153 91.7158C488.859 94.1507 485.028 95.9232 480.659 97.0332C476.326 98.1074 471.743 98.6445 466.909 98.6445C465.763 98.6445 464.331 98.6087 462.612 98.5371C460.894 98.4655 459.139 98.3939 457.349 98.3223C455.558 98.2507 453.857 98.179 452.246 98.1074C450.671 98.0358 449.471 98 448.647 98V97.7852C448.898 97.0332 449.113 96.0664 449.292 94.8848C449.507 93.7031 449.668 92.2529 449.775 90.5342C449.919 88.7796 450.026 86.7028 450.098 84.3037C450.169 81.9046 450.205 79.0938 450.205 75.8711V62.3359C450.205 59.1133 450.169 56.3024 450.098 53.9033C450.026 51.5042 449.919 49.4274 449.775 47.6729C449.668 45.9183 449.507 44.4502 449.292 43.2686C449.113 42.0869 448.898 41.1201 448.647 40.3682V40.1533ZM610.21 32.7949L609.727 33.0098C606.934 30.4316 603.568 28.3727 599.629 26.833C595.726 25.2933 591.429 24.5234 586.738 24.5234C582.227 24.5234 578.091 25.2396 574.331 26.6719C570.571 28.0684 567.331 30.1094 564.609 32.7949C561.924 35.4805 559.829 38.7747 558.325 42.6777C556.821 46.5807 556.069 51.0208 556.069 55.998C556.069 61.4766 556.785 66.597 558.218 71.3594C559.65 76.0859 561.781 80.1859 564.609 83.6592C567.438 87.1325 570.965 89.8717 575.19 91.877C579.451 93.8464 584.411 94.8311 590.068 94.8311C592.109 94.8311 594.15 94.6162 596.191 94.1865C598.232 93.7568 600.184 93.1302 602.046 92.3066C603.944 91.4473 605.716 90.4268 607.363 89.2451C609.046 88.0277 610.568 86.6491 611.929 85.1094L612.52 85.4854L608.223 96.4424C605.537 97.4808 602.565 98.2686 599.307 98.8057C596.084 99.3786 592.826 99.665 589.531 99.665C582.907 99.665 576.838 98.7161 571.323 96.8184C565.845 94.8848 561.118 92.1634 557.144 88.6543C553.205 85.1452 550.125 80.9378 547.905 76.0322C545.721 71.0908 544.629 65.6123 544.629 59.5967C544.629 56.195 545.059 52.847 545.918 49.5527C546.813 46.2585 548.102 43.1253 549.785 40.1533C551.468 37.1813 553.545 34.46 556.016 31.9893C558.486 29.4827 561.297 27.3164 564.448 25.4902C567.635 23.6641 571.126 22.2497 574.922 21.2471C578.753 20.2087 582.889 19.6895 587.329 19.6895C594.24 19.6895 600.649 20.7458 606.558 22.8584L610.21 32.7949ZM656.777 79.8457C655.811 79.8457 654.593 79.8457 653.125 79.8457C651.693 79.8457 650.117 79.8457 648.398 79.8457C646.68 79.8457 644.907 79.8457 643.081 79.8457C641.255 79.8457 639.518 79.8636 637.871 79.8994C636.224 79.8994 634.72 79.9173 633.359 79.9531C631.999 79.9531 630.942 79.9531 630.19 79.9531L628.203 84.1426C627.344 85.8613 626.61 87.3652 626.001 88.6543C625.392 89.9076 624.891 91.0176 624.497 91.9844C624.103 92.9512 623.817 93.7926 623.638 94.5088C623.459 95.1891 623.369 95.8337 623.369 96.4424C623.369 96.8363 623.387 97.1406 623.423 97.3555C623.459 97.5345 623.512 97.6777 623.584 97.7852V98H614.131V97.7852C614.382 97.5345 614.775 96.9974 615.312 96.1738C615.85 95.3145 616.458 94.276 617.139 93.0586C617.855 91.8411 618.607 90.4626 619.395 88.9229C620.218 87.3831 621.024 85.7897 621.812 84.1426L643.726 38.918H647.754L669.238 84.1426C670.062 85.8613 670.885 87.5085 671.709 89.084C672.568 90.6595 673.356 92.0739 674.072 93.3271C674.788 94.5446 675.415 95.5651 675.952 96.3887C676.489 97.1764 676.847 97.6419 677.026 97.7852V98H663.276C663.348 97.7135 663.384 97.4629 663.384 97.248C663.384 96.9974 663.384 96.7288 663.384 96.4424C663.384 95.6546 663.205 94.7057 662.847 93.5957C662.524 92.4857 662.113 91.3577 661.611 90.2119C661.146 89.0303 660.645 87.9023 660.107 86.8281C659.606 85.7539 659.194 84.8587 658.872 84.1426L656.777 79.8457ZM632.285 75.6562H635.562C637.065 75.6562 638.659 75.6562 640.342 75.6562C642.061 75.6204 643.779 75.6025 645.498 75.6025C647.217 75.6025 648.882 75.6025 650.493 75.6025C652.104 75.5667 653.555 75.5488 654.844 75.5488L643.726 51.8086L632.285 75.6562ZM694.482 71.8428C695.199 71.9502 695.897 72.0576 696.577 72.165C697.293 72.2367 697.992 72.2725 698.672 72.2725C700.713 72.2725 702.575 71.9681 704.258 71.3594C705.977 70.7148 707.427 69.766 708.608 68.5127C709.826 67.2594 710.757 65.666 711.401 63.7324C712.082 61.7988 712.422 59.543 712.422 56.9648C712.422 54.888 712.189 53.0081 711.724 51.3252C711.258 49.6423 710.56 48.21 709.629 47.0283C708.734 45.8109 707.606 44.8799 706.245 44.2354C704.884 43.555 703.309 43.2148 701.519 43.2148C700.373 43.2148 699.352 43.2686 698.457 43.376C697.598 43.4476 696.864 43.5371 696.255 43.6445C695.575 43.7878 694.984 43.931 694.482 44.0742V71.8428ZM694.482 75.5488C694.482 78.7715 694.518 81.6003 694.59 84.0352C694.661 86.4701 694.751 88.5827 694.858 90.373C695.002 92.1276 695.163 93.6136 695.342 94.8311C695.521 96.0485 695.736 97.0332 695.986 97.7852V98H683.579V97.7852C683.83 97.0332 684.045 96.0664 684.224 94.8848C684.438 93.7031 684.6 92.2529 684.707 90.5342C684.85 88.7796 684.958 86.7028 685.029 84.3037C685.101 81.9046 685.137 79.0938 685.137 75.8711V62.3359C685.137 59.1133 685.101 56.3203 685.029 53.957C684.958 51.5579 684.85 49.499 684.707 47.7803C684.6 46.0257 684.438 44.5576 684.224 43.376C684.045 42.1943 683.83 41.2275 683.579 40.4756V40.2607C684.367 40.2965 685.155 40.3324 685.942 40.3682C686.623 40.404 687.339 40.4398 688.091 40.4756C688.879 40.4756 689.613 40.4756 690.293 40.4756C691.439 40.4756 693.122 40.3682 695.342 40.1533C697.598 39.9385 700.247 39.8311 703.291 39.8311C706.084 39.8311 708.68 40.207 711.079 40.959C713.478 41.6751 715.537 42.7493 717.256 44.1816C719.01 45.6139 720.371 47.3685 721.338 49.4453C722.34 51.4863 722.842 53.8496 722.842 56.5352C722.842 59.6862 722.233 62.4792 721.016 64.9141C719.798 67.3132 718.133 69.3363 716.021 70.9834C713.944 72.5947 711.491 73.8122 708.662 74.6357C705.833 75.4593 702.826 75.8711 699.639 75.8711C697.956 75.8711 696.237 75.7637 694.482 75.5488ZM734.121 62.3359C734.121 59.1133 734.085 56.3203 734.014 53.957C733.942 51.5579 733.835 49.499 733.691 47.7803C733.584 46.0257 733.423 44.5576 733.208 43.376C733.029 42.1943 732.814 41.2275 732.563 40.4756V40.2607H745.024V40.4756C744.774 41.2275 744.541 42.1943 744.326 43.376C744.147 44.5576 743.986 46.0257 743.843 47.7803C743.735 49.499 743.646 51.5579 743.574 53.957C743.503 56.3203 743.467 59.1133 743.467 62.3359V75.8711C743.467 79.0938 743.503 81.9046 743.574 84.3037C743.646 86.7028 743.735 88.7796 743.843 90.5342C743.986 92.2529 744.147 93.7031 744.326 94.8848C744.541 96.0664 744.774 97.0332 745.024 97.7852V98H732.563V97.7852C732.814 97.0332 733.029 96.0664 733.208 94.8848C733.423 93.7031 733.584 92.2529 733.691 90.5342C733.835 88.7796 733.942 86.7028 734.014 84.3037C734.085 81.9046 734.121 79.0938 734.121 75.8711V62.3359ZM774.727 44.2354C771.468 44.2354 768.496 44.3786 765.811 44.665C763.161 44.9515 760.869 45.2559 758.936 45.5781C756.715 45.972 754.71 46.4017 752.92 46.8672L753.994 39.9385C754.531 40.0101 755.409 40.0638 756.626 40.0996C757.843 40.1354 759.115 40.1712 760.439 40.207C761.8 40.207 763.071 40.2249 764.253 40.2607C765.47 40.2607 766.312 40.2607 766.777 40.2607H792.183C792.612 40.2607 793.4 40.2607 794.546 40.2607C795.728 40.2249 796.981 40.207 798.306 40.207C799.631 40.1712 800.902 40.1354 802.119 40.0996C803.337 40.0638 804.214 40.0101 804.751 39.9385L805.825 46.8672C804.106 46.4017 802.137 45.972 799.917 45.5781C798.019 45.2559 795.728 44.9515 793.042 44.665C790.392 44.3786 787.402 44.2354 784.072 44.2354V75.8711C784.072 79.0938 784.108 81.9046 784.18 84.3037C784.251 86.7028 784.341 88.7796 784.448 90.5342C784.591 92.2529 784.753 93.7031 784.932 94.8848C785.111 96.0664 785.326 97.0332 785.576 97.7852V98H773.169V97.7852C773.42 97.0332 773.634 96.0664 773.813 94.8848C773.993 93.7031 774.154 92.2529 774.297 90.5342C774.44 88.7796 774.548 86.7028 774.619 84.3037C774.691 81.9046 774.727 79.0938 774.727 75.8711V44.2354ZM844.98 79.8457C844.014 79.8457 842.796 79.8457 841.328 79.8457C839.896 79.8457 838.32 79.8457 836.602 79.8457C834.883 79.8457 833.11 79.8457 831.284 79.8457C829.458 79.8457 827.721 79.8636 826.074 79.8994C824.427 79.8994 822.923 79.9173 821.562 79.9531C820.202 79.9531 819.146 79.9531 818.394 79.9531L816.406 84.1426C815.547 85.8613 814.813 87.3652 814.204 88.6543C813.595 89.9076 813.094 91.0176 812.7 91.9844C812.306 92.9512 812.02 93.7926 811.841 94.5088C811.662 95.1891 811.572 95.8337 811.572 96.4424C811.572 96.8363 811.59 97.1406 811.626 97.3555C811.662 97.5345 811.715 97.6777 811.787 97.7852V98H802.334V97.7852C802.585 97.5345 802.979 96.9974 803.516 96.1738C804.053 95.3145 804.661 94.276 805.342 93.0586C806.058 91.8411 806.81 90.4626 807.598 88.9229C808.421 87.3831 809.227 85.7897 810.015 84.1426L831.929 38.918H835.957L857.441 84.1426C858.265 85.8613 859.089 87.5085 859.912 89.084C860.771 90.6595 861.559 92.0739 862.275 93.3271C862.992 94.5446 863.618 95.5651 864.155 96.3887C864.692 97.1764 865.05 97.6419 865.229 97.7852V98H851.479C851.551 97.7135 851.587 97.4629 851.587 97.248C851.587 96.9974 851.587 96.7288 851.587 96.4424C851.587 95.6546 851.408 94.7057 851.05 93.5957C850.728 92.4857 850.316 91.3577 849.814 90.2119C849.349 89.0303 848.848 87.9023 848.311 86.8281C847.809 85.7539 847.397 84.8587 847.075 84.1426L844.98 79.8457ZM820.488 75.6562H823.765C825.269 75.6562 826.862 75.6562 828.545 75.6562C830.264 75.6204 831.982 75.6025 833.701 75.6025C835.42 75.6025 837.085 75.6025 838.696 75.6025C840.308 75.5667 841.758 75.5488 843.047 75.5488L831.929 51.8086L820.488 75.6562ZM882.686 93.8105C886.016 93.8105 889.077 93.6852 891.87 93.4346C894.699 93.1481 897.17 92.8438 899.282 92.5215C901.753 92.1276 903.991 91.68 905.996 91.1787L904.761 98.3223C904.259 98.2865 903.4 98.2327 902.183 98.1611C901.001 98.1253 899.748 98.0895 898.423 98.0537C897.098 98.0537 895.863 98.0358 894.717 98C893.571 98 892.783 98 892.354 98H871.782V97.7852C872.033 97.0332 872.248 96.0664 872.427 94.8848C872.642 93.7031 872.803 92.2529 872.91 90.5342C873.053 88.7796 873.161 86.7028 873.232 84.3037C873.304 81.9046 873.34 79.0938 873.34 75.8711V62.3359C873.34 59.1133 873.304 56.3203 873.232 53.957C873.161 51.5579 873.053 49.499 872.91 47.7803C872.803 46.0257 872.642 44.5576 872.427 43.376C872.248 42.1943 872.033 41.2275 871.782 40.4756V40.2607H884.189V40.4756C883.939 41.2275 883.724 42.1943 883.545 43.376C883.366 44.5576 883.205 46.0257 883.062 47.7803C882.954 49.499 882.865 51.5579 882.793 53.957C882.721 56.3203 882.686 59.1133 882.686 62.3359V93.8105ZM945.098 97.7852C945.492 97.2122 945.939 96.3708 946.44 95.2607C946.942 94.1149 947.336 92.6826 947.622 90.9639C948.016 88.4574 948.446 85.6465 948.911 82.5312C949.412 79.3802 949.914 76.0859 950.415 72.6484C950.952 69.2109 951.471 65.7018 951.973 62.1211C952.51 58.5046 953.011 54.9596 953.477 51.4863C953.978 47.9772 954.443 44.6113 954.873 41.3887C955.339 38.1302 955.75 35.1582 956.108 32.4727C956.466 29.7871 956.753 27.4596 956.968 25.4902C957.218 23.485 957.397 21.9811 957.505 20.9785H964.326L998.11 84.1426L1031.63 20.9785H1036.73L1045.54 84.7871C1045.79 86.7923 1046.06 88.5111 1046.34 89.9434C1046.63 91.3757 1046.92 92.611 1047.2 93.6494C1047.49 94.652 1047.76 95.4935 1048.01 96.1738C1048.29 96.8184 1048.56 97.3555 1048.81 97.7852V98H1035.28V97.7852C1035.46 97.3913 1035.62 96.7467 1035.76 95.8516C1035.94 94.9564 1036.03 93.8822 1036.03 92.6289C1036.03 92.1634 1036.01 91.6979 1035.98 91.2324C1035.94 90.7311 1035.89 90.194 1035.82 89.6211L1028.99 38.166L997.305 97.7852L993.599 97.3555L961.694 37.6289C960.441 46.1152 959.349 53.957 958.418 61.1543C958.024 64.2337 957.63 67.3132 957.236 70.3926C956.842 73.4362 956.484 76.2829 956.162 78.9326C955.876 81.5824 955.643 83.9277 955.464 85.9688C955.285 87.974 955.195 89.46 955.195 90.4268C955.195 91.6442 955.231 92.7184 955.303 93.6494C955.374 94.5804 955.446 95.3682 955.518 96.0127C955.625 96.7646 955.732 97.4271 955.84 98H945.098V97.7852ZM1095.38 79.8457C1094.41 79.8457 1093.2 79.8457 1091.73 79.8457C1090.3 79.8457 1088.72 79.8457 1087 79.8457C1085.28 79.8457 1083.51 79.8457 1081.68 79.8457C1079.86 79.8457 1078.12 79.8636 1076.47 79.8994C1074.83 79.8994 1073.32 79.9173 1071.96 79.9531C1070.6 79.9531 1069.55 79.9531 1068.79 79.9531L1066.81 84.1426C1065.95 85.8613 1065.21 87.3652 1064.6 88.6543C1064 89.9076 1063.49 91.0176 1063.1 91.9844C1062.71 92.9512 1062.42 93.7926 1062.24 94.5088C1062.06 95.1891 1061.97 95.8337 1061.97 96.4424C1061.97 96.8363 1061.99 97.1406 1062.03 97.3555C1062.06 97.5345 1062.12 97.6777 1062.19 97.7852V98H1052.73V97.7852C1052.99 97.5345 1053.38 96.9974 1053.92 96.1738C1054.45 95.3145 1055.06 94.276 1055.74 93.0586C1056.46 91.8411 1057.21 90.4626 1058 88.9229C1058.82 87.3831 1059.63 85.7897 1060.42 84.1426L1082.33 38.918H1086.36L1107.84 84.1426C1108.67 85.8613 1109.49 87.5085 1110.31 89.084C1111.17 90.6595 1111.96 92.0739 1112.68 93.3271C1113.39 94.5446 1114.02 95.5651 1114.56 96.3887C1115.09 97.1764 1115.45 97.6419 1115.63 97.7852V98H1101.88C1101.95 97.7135 1101.99 97.4629 1101.99 97.248C1101.99 96.9974 1101.99 96.7288 1101.99 96.4424C1101.99 95.6546 1101.81 94.7057 1101.45 93.5957C1101.13 92.4857 1100.72 91.3577 1100.21 90.2119C1099.75 89.0303 1099.25 87.9023 1098.71 86.8281C1098.21 85.7539 1097.8 84.8587 1097.48 84.1426L1095.38 79.8457ZM1070.89 75.6562H1074.17C1075.67 75.6562 1077.26 75.6562 1078.95 75.6562C1080.66 75.6204 1082.38 75.6025 1084.1 75.6025C1085.82 75.6025 1087.49 75.6025 1089.1 75.6025C1090.71 75.5667 1092.16 75.5488 1093.45 75.5488L1082.33 51.8086L1070.89 75.6562ZM1173.8 98.752H1171.7L1129 56.75V75.8711C1129 79.0938 1129.02 81.9046 1129.06 84.3037C1129.09 86.7028 1129.15 88.7796 1129.22 90.5342C1129.33 92.2529 1129.45 93.7031 1129.59 94.8848C1129.77 96.0664 1129.99 97.0332 1130.24 97.7852V98H1122.18V97.7852C1122.43 97.0332 1122.65 96.0664 1122.83 94.8848C1123.01 93.7031 1123.15 92.2529 1123.26 90.5342C1123.36 88.7796 1123.44 86.7028 1123.47 84.3037C1123.51 81.9046 1123.53 79.0938 1123.53 75.8711V62.3359C1123.53 59.1133 1123.51 56.3203 1123.47 53.957C1123.44 51.5579 1123.36 49.499 1123.26 47.7803C1123.15 46.0257 1123.01 44.5576 1122.83 43.376C1122.65 42.1943 1122.43 41.2275 1122.18 40.4756V40.2607H1125.51L1168.27 82.4775V62.3359C1168.27 59.1133 1168.25 56.3203 1168.21 53.957C1168.18 51.5579 1168.11 49.499 1168 47.7803C1167.93 46.0257 1167.82 44.5576 1167.68 43.376C1167.53 42.1943 1167.34 41.2275 1167.08 40.4756V40.2607H1175.09V40.4756C1174.84 41.2275 1174.62 42.1943 1174.44 43.376C1174.3 44.5576 1174.17 46.0257 1174.07 47.7803C1173.96 49.499 1173.89 51.5579 1173.85 53.957C1173.82 56.3203 1173.8 59.1133 1173.8 62.3359V98.752ZM1224.29 79.8457C1223.32 79.8457 1222.1 79.8457 1220.63 79.8457C1219.2 79.8457 1217.63 79.8457 1215.91 79.8457C1214.19 79.8457 1212.42 79.8457 1210.59 79.8457C1208.76 79.8457 1207.03 79.8636 1205.38 79.8994C1203.73 79.8994 1202.23 79.9173 1200.87 79.9531C1199.51 79.9531 1198.45 79.9531 1197.7 79.9531L1195.71 84.1426C1194.85 85.8613 1194.12 87.3652 1193.51 88.6543C1192.9 89.9076 1192.4 91.0176 1192.01 91.9844C1191.61 92.9512 1191.33 93.7926 1191.15 94.5088C1190.97 95.1891 1190.88 95.8337 1190.88 96.4424C1190.88 96.8363 1190.9 97.1406 1190.93 97.3555C1190.97 97.5345 1191.02 97.6777 1191.09 97.7852V98H1181.64V97.7852C1181.89 97.5345 1182.29 96.9974 1182.82 96.1738C1183.36 95.3145 1183.97 94.276 1184.65 93.0586C1185.36 91.8411 1186.12 90.4626 1186.9 88.9229C1187.73 87.3831 1188.53 85.7897 1189.32 84.1426L1211.24 38.918H1215.26L1236.75 84.1426C1237.57 85.8613 1238.4 87.5085 1239.22 89.084C1240.08 90.6595 1240.87 92.0739 1241.58 93.3271C1242.3 94.5446 1242.92 95.5651 1243.46 96.3887C1244 97.1764 1244.36 97.6419 1244.54 97.7852V98H1230.79C1230.86 97.7135 1230.89 97.4629 1230.89 97.248C1230.89 96.9974 1230.89 96.7288 1230.89 96.4424C1230.89 95.6546 1230.71 94.7057 1230.36 93.5957C1230.03 92.4857 1229.62 91.3577 1229.12 90.2119C1228.66 89.0303 1228.15 87.9023 1227.62 86.8281C1227.12 85.7539 1226.7 84.8587 1226.38 84.1426L1224.29 79.8457ZM1199.79 75.6562H1203.07C1204.58 75.6562 1206.17 75.6562 1207.85 75.6562C1209.57 75.6204 1211.29 75.6025 1213.01 75.6025C1214.73 75.6025 1216.39 75.6025 1218 75.6025C1219.61 75.5667 1221.06 75.5488 1222.35 75.5488L1211.24 51.8086L1199.79 75.6562ZM1303.89 91.501C1303.89 91.9665 1303.83 92.3604 1303.73 92.6826C1303.65 93.0049 1303.46 93.2734 1303.13 93.4883C1300.59 95.2786 1297.62 96.7109 1294.22 97.7852C1290.85 98.8236 1286.9 99.3428 1282.35 99.3428C1277.23 99.3428 1272.56 98.6087 1268.33 97.1406C1264.14 95.6725 1260.54 93.6315 1257.53 91.0176C1254.53 88.3678 1252.18 85.1989 1250.5 81.5107C1248.85 77.8226 1248.03 73.7406 1248.03 69.2646C1248.03 65.4333 1248.78 61.7093 1250.28 58.0928C1251.82 54.4762 1254.03 51.2715 1256.89 48.4785C1259.75 45.6855 1263.23 43.4476 1267.31 41.7646C1271.43 40.0817 1276.06 39.2402 1281.22 39.2402C1283.91 39.2402 1286.45 39.4014 1288.85 39.7236C1291.25 40.0101 1293.56 40.4756 1295.78 41.1201L1299.8 50.7881L1299.27 51.1641C1297.12 48.6934 1294.52 46.7419 1291.48 45.3096C1288.44 43.8415 1284.94 43.1074 1281.01 43.1074C1277.78 43.1074 1274.81 43.6266 1272.09 44.665C1269.4 45.7035 1267.06 47.2253 1265.05 49.2305C1263.08 51.1999 1261.54 53.6348 1260.43 56.5352C1259.32 59.4355 1258.77 62.7298 1258.77 66.418C1258.77 70.5716 1259.29 74.4209 1260.33 77.9658C1261.37 81.5107 1262.92 84.5902 1265 87.2041C1267.08 89.7822 1269.64 91.8053 1272.68 93.2734C1275.76 94.7415 1279.34 95.4756 1283.42 95.4756C1286.93 95.4756 1289.65 95.028 1291.59 94.1328C1293.56 93.2376 1294.54 92.2171 1294.54 91.0713V88.2246C1294.54 86.3626 1294.52 84.7513 1294.49 83.3906C1294.45 82.0299 1294.4 80.8662 1294.33 79.8994C1294.25 78.8968 1294.15 78.0374 1294 77.3213C1293.9 76.6051 1293.75 75.9427 1293.57 75.334V75.1191H1305.01V75.334C1304.84 75.8711 1304.67 76.5156 1304.53 77.2676C1304.39 78.0195 1304.26 78.9147 1304.16 79.9531C1304.08 80.9915 1304.01 82.209 1303.94 83.6055C1303.9 85.002 1303.89 86.6133 1303.89 88.4395V91.501ZM1316.19 40.2607C1319.7 40.2607 1323.29 40.2607 1326.98 40.2607C1330.67 40.2249 1334.09 40.1891 1337.24 40.1533C1340.39 40.0817 1343.1 40.0101 1345.35 39.9385C1347.64 39.8669 1349.15 39.7594 1349.86 39.6162L1347.77 45.417C1346.8 45.1663 1345.71 44.9336 1344.49 44.7188C1343.42 44.5397 1342.11 44.3786 1340.57 44.2354C1339.07 44.0563 1337.31 43.9668 1335.31 43.9668C1334.59 43.9668 1333.77 44.0026 1332.84 44.0742C1331.91 44.11 1331.01 44.1637 1330.15 44.2354C1329.15 44.307 1328.13 44.3786 1327.09 44.4502V65.666C1329.99 65.6302 1332.6 65.5586 1334.93 65.4512C1337.26 65.3438 1339.25 65.2005 1340.89 65.0215C1342.83 64.8783 1344.53 64.6813 1346 64.4307L1344.71 70.8223C1342.74 70.5716 1340.75 70.3568 1338.75 70.1777C1337.03 69.9987 1335.13 69.8555 1333.05 69.748C1330.97 69.6048 1328.99 69.5332 1327.09 69.5332V93.918C1330.42 93.918 1333.48 93.7926 1336.27 93.542C1339.07 93.2555 1341.5 92.9512 1343.58 92.6289C1346.01 92.235 1348.22 91.7874 1350.19 91.2861L1348.95 98.3223C1348.41 98.2865 1347.54 98.2327 1346.32 98.1611C1345.14 98.1253 1343.88 98.0895 1342.56 98.0537C1341.27 98.0537 1340.05 98.0358 1338.91 98C1337.76 98 1336.97 98 1336.54 98H1316.19V97.7852C1316.44 97.0332 1316.65 96.0664 1316.83 94.8848C1317.05 93.7031 1317.21 92.2529 1317.31 90.5342C1317.46 88.7796 1317.57 86.7028 1317.64 84.3037C1317.71 81.9046 1317.74 79.0938 1317.74 75.8711V62.3359C1317.74 59.1133 1317.71 56.3203 1317.64 53.957C1317.57 51.5579 1317.46 49.499 1317.31 47.7803C1317.21 46.0257 1317.05 44.5576 1316.83 43.376C1316.65 42.1943 1316.44 41.2275 1316.19 40.4756V40.2607ZM1358.4 97.7852C1358.87 97.2839 1359.33 96.3708 1359.8 95.0459C1360.3 93.721 1360.69 92.2887 1360.98 90.749C1361.41 88.2425 1361.88 85.3958 1362.38 82.209C1362.92 78.9863 1363.43 75.6742 1363.94 72.2725C1364.47 68.8708 1364.99 65.487 1365.49 62.1211C1365.99 58.7194 1366.46 55.5684 1366.89 52.668C1367.32 49.7676 1367.68 47.2253 1367.96 45.041C1368.25 42.8568 1368.45 41.2633 1368.55 40.2607H1374.95L1400.57 86.1299L1426.83 40.2607H1432.04L1438.49 85.1094C1438.81 87.1504 1439.11 88.887 1439.4 90.3193C1439.72 91.7516 1440.03 92.9691 1440.31 93.9717C1440.6 94.9385 1440.89 95.7262 1441.17 96.335C1441.46 96.9437 1441.71 97.4271 1441.92 97.7852V98H1428.71V97.7852C1428.82 97.4987 1428.94 97.0153 1429.09 96.335C1429.27 95.6546 1429.36 94.849 1429.36 93.918C1429.36 93.3092 1429.3 92.432 1429.19 91.2861C1429.12 90.1403 1429 89.0124 1428.82 87.9023L1424.2 54.9775L1399.76 97.8926L1395.95 97.3555L1371.94 54.6553C1371.04 60.6709 1370.26 66.2389 1369.58 71.3594C1369.29 73.5436 1369 75.7279 1368.72 77.9121C1368.43 80.0964 1368.18 82.1553 1367.96 84.0889C1367.75 85.9867 1367.57 87.6696 1367.43 89.1377C1367.28 90.6058 1367.21 91.6979 1367.21 92.4141C1367.21 93.3092 1367.23 94.097 1367.27 94.7773C1367.3 95.4219 1367.36 95.9948 1367.43 96.4961C1367.5 97.069 1367.57 97.5703 1367.64 98H1358.4V97.7852ZM1453.36 40.2607C1456.87 40.2607 1460.47 40.2607 1464.16 40.2607C1467.85 40.2249 1471.27 40.1891 1474.42 40.1533C1477.57 40.0817 1480.27 40.0101 1482.53 39.9385C1484.82 39.8669 1486.32 39.7594 1487.04 39.6162L1484.95 45.417C1483.98 45.1663 1482.89 44.9336 1481.67 44.7188C1480.6 44.5397 1479.29 44.3786 1477.75 44.2354C1476.25 44.0563 1474.49 43.9668 1472.49 43.9668C1471.77 43.9668 1470.95 44.0026 1470.01 44.0742C1469.08 44.11 1468.19 44.1637 1467.33 44.2354C1466.33 44.307 1465.31 44.3786 1464.27 44.4502V65.666C1467.17 65.6302 1469.78 65.5586 1472.11 65.4512C1474.44 65.3438 1476.42 65.2005 1478.07 65.0215C1480 64.8783 1481.71 64.6813 1483.17 64.4307L1481.88 70.8223C1479.92 70.5716 1477.93 70.3568 1475.92 70.1777C1474.2 69.9987 1472.31 69.8555 1470.23 69.748C1468.15 69.6048 1466.17 69.5332 1464.27 69.5332V93.918C1467.6 93.918 1470.66 93.7926 1473.45 93.542C1476.25 93.2555 1478.68 92.9512 1480.76 92.6289C1483.19 92.235 1485.39 91.7874 1487.36 91.2861L1486.13 98.3223C1485.59 98.2865 1484.71 98.2327 1483.5 98.1611C1482.31 98.1253 1481.06 98.0895 1479.74 98.0537C1478.45 98.0537 1477.23 98.0358 1476.08 98C1474.94 98 1474.15 98 1473.72 98H1453.36V97.7852C1453.61 97.0332 1453.83 96.0664 1454.01 94.8848C1454.22 93.7031 1454.38 92.2529 1454.49 90.5342C1454.64 88.7796 1454.74 86.7028 1454.81 84.3037C1454.89 81.9046 1454.92 79.0938 1454.92 75.8711V62.3359C1454.92 59.1133 1454.89 56.3203 1454.81 53.957C1454.74 51.5579 1454.64 49.499 1454.49 47.7803C1454.38 46.0257 1454.22 44.5576 1454.01 43.376C1453.83 42.1943 1453.61 41.2275 1453.36 40.4756V40.2607ZM1550.96 98.752H1548.86L1506.16 56.75V75.8711C1506.16 79.0938 1506.18 81.9046 1506.22 84.3037C1506.25 86.7028 1506.31 88.7796 1506.38 90.5342C1506.48 92.2529 1506.61 93.7031 1506.75 94.8848C1506.93 96.0664 1507.15 97.0332 1507.4 97.7852V98H1499.34V97.7852C1499.59 97.0332 1499.81 96.0664 1499.99 94.8848C1500.16 93.7031 1500.31 92.2529 1500.42 90.5342C1500.52 88.7796 1500.59 86.7028 1500.63 84.3037C1500.67 81.9046 1500.68 79.0938 1500.68 75.8711V62.3359C1500.68 59.1133 1500.67 56.3203 1500.63 53.957C1500.59 51.5579 1500.52 49.499 1500.42 47.7803C1500.31 46.0257 1500.16 44.5576 1499.99 43.376C1499.81 42.1943 1499.59 41.2275 1499.34 40.4756V40.2607H1502.67L1545.42 82.4775V62.3359C1545.42 59.1133 1545.41 56.3203 1545.37 53.957C1545.34 51.5579 1545.26 49.499 1545.16 47.7803C1545.08 46.0257 1544.98 44.5576 1544.83 43.376C1544.69 42.1943 1544.49 41.2275 1544.24 40.4756V40.2607H1552.25V40.4756C1552 41.2275 1551.78 42.1943 1551.6 43.376C1551.46 44.5576 1551.33 46.0257 1551.23 47.7803C1551.12 49.499 1551.05 51.5579 1551.01 53.957C1550.97 56.3203 1550.96 59.1133 1550.96 62.3359V98.752ZM1581.14 44.2354C1577.88 44.2354 1574.91 44.3786 1572.23 44.665C1569.58 44.9515 1567.29 45.2559 1565.35 45.5781C1563.13 45.972 1561.13 46.4017 1559.34 46.8672L1560.41 39.9385C1560.95 40.0101 1561.82 40.0638 1563.04 40.0996C1564.26 40.1354 1565.53 40.1712 1566.86 40.207C1568.22 40.207 1569.49 40.2249 1570.67 40.2607C1571.89 40.2607 1572.73 40.2607 1573.19 40.2607H1598.6C1599.03 40.2607 1599.82 40.2607 1600.96 40.2607C1602.14 40.2249 1603.4 40.207 1604.72 40.207C1606.05 40.1712 1607.32 40.1354 1608.54 40.0996C1609.75 40.0638 1610.63 40.0101 1611.17 39.9385L1612.24 46.8672C1610.52 46.4017 1608.55 45.972 1606.33 45.5781C1604.44 45.2559 1602.14 44.9515 1599.46 44.665C1596.81 44.3786 1593.82 44.2354 1590.49 44.2354V75.8711C1590.49 79.0938 1590.52 81.9046 1590.6 84.3037C1590.67 86.7028 1590.76 88.7796 1590.86 90.5342C1591.01 92.2529 1591.17 93.7031 1591.35 94.8848C1591.53 96.0664 1591.74 97.0332 1591.99 97.7852V98H1579.58V97.7852C1579.84 97.0332 1580.05 96.0664 1580.23 94.8848C1580.41 93.7031 1580.57 92.2529 1580.71 90.5342C1580.86 88.7796 1580.96 86.7028 1581.04 84.3037C1581.11 81.9046 1581.14 79.0938 1581.14 75.8711V44.2354ZM1614.55 93.2734C1614.55 92.4857 1614.69 91.7516 1614.98 91.0713C1615.3 90.3551 1615.71 89.7464 1616.22 89.2451C1616.75 88.708 1617.36 88.2962 1618.04 88.0098C1618.76 87.6875 1619.51 87.5264 1620.3 87.5264C1621.12 87.5264 1621.87 87.7054 1622.55 88.0635C1623.27 88.3857 1623.88 88.8512 1624.38 89.46C1624.92 90.0329 1625.33 90.7132 1625.62 91.501C1625.94 92.2887 1626.1 93.1302 1626.1 94.0254C1626.1 95.4219 1625.78 96.9437 1625.13 98.5908C1624.52 100.238 1623.7 101.921 1622.66 103.64C1621.66 105.358 1620.51 107.041 1619.22 108.688C1617.97 110.371 1616.68 111.947 1615.36 113.415L1613.91 112.18C1615.7 110.067 1617.13 107.972 1618.2 105.896C1619.28 103.819 1619.9 101.545 1620.08 99.0742C1618.51 99.0026 1617.18 98.4297 1616.11 97.3555C1615.07 96.2812 1614.55 94.9206 1614.55 93.2734ZM1683.62 93.2734C1687.85 93.2734 1691.73 93.0944 1695.28 92.7363C1698.82 92.3783 1701.92 91.9665 1704.57 91.501C1707.65 90.9997 1710.46 90.4089 1713 89.7285L1711.45 98.4297C1711.02 98.3939 1710.37 98.3581 1709.51 98.3223C1708.65 98.2865 1707.69 98.2507 1706.61 98.2148C1705.57 98.179 1704.46 98.1432 1703.28 98.1074C1702.14 98.1074 1701.04 98.0895 1700 98.0537C1698.97 98.0537 1698.04 98.0358 1697.21 98C1696.42 98 1695.85 98 1695.49 98H1672.29V97.7852C1672.5 97.0332 1672.7 96.1022 1672.88 94.9922C1673.1 93.8822 1673.27 92.5036 1673.42 90.8564C1673.56 89.2093 1673.67 87.2578 1673.74 85.002C1673.81 82.7103 1673.85 80.0426 1673.85 76.999V42.0332C1673.85 38.9896 1673.81 36.3398 1673.74 34.084C1673.67 31.7923 1673.56 29.8229 1673.42 28.1758C1673.27 26.4928 1673.1 25.0964 1672.88 23.9863C1672.7 22.8763 1672.5 21.9453 1672.29 21.1934V20.9785H1685.18V21.1934C1684.97 21.9453 1684.75 22.8763 1684.54 23.9863C1684.36 25.0964 1684.2 26.4928 1684.05 28.1758C1683.95 29.8229 1683.84 31.7923 1683.73 34.084C1683.66 36.3398 1683.62 38.9896 1683.62 42.0332V93.2734ZM1734.22 93.2734C1738.44 93.2734 1742.33 93.0944 1745.87 92.7363C1749.42 92.3783 1752.52 91.9665 1755.17 91.501C1758.25 90.9997 1761.06 90.4089 1763.6 89.7285L1762.04 98.4297C1761.61 98.3939 1760.97 98.3581 1760.11 98.3223C1759.25 98.2865 1758.28 98.2507 1757.21 98.2148C1756.17 98.179 1755.06 98.1432 1753.88 98.1074C1752.73 98.1074 1751.64 98.0895 1750.6 98.0537C1749.56 98.0537 1748.63 98.0358 1747.81 98C1747.02 98 1746.45 98 1746.09 98H1722.89V97.7852C1723.1 97.0332 1723.3 96.1022 1723.48 94.9922C1723.69 93.8822 1723.87 92.5036 1724.01 90.8564C1724.16 89.2093 1724.26 87.2578 1724.34 85.002C1724.41 82.7103 1724.44 80.0426 1724.44 76.999V42.0332C1724.44 38.9896 1724.41 36.3398 1724.34 34.084C1724.26 31.7923 1724.16 29.8229 1724.01 28.1758C1723.87 26.4928 1723.69 25.0964 1723.48 23.9863C1723.3 22.8763 1723.1 21.9453 1722.89 21.1934V20.9785H1735.78V21.1934C1735.56 21.9453 1735.35 22.8763 1735.13 23.9863C1734.95 25.0964 1734.79 26.4928 1734.65 28.1758C1734.54 29.8229 1734.43 31.7923 1734.33 34.084C1734.25 36.3398 1734.22 38.9896 1734.22 42.0332V93.2734ZM1835.79 32.7949L1835.3 33.0098C1832.51 30.4316 1829.14 28.3727 1825.21 26.833C1821.3 25.2933 1817.01 24.5234 1812.31 24.5234C1807.8 24.5234 1803.67 25.2396 1799.91 26.6719C1796.15 28.0684 1792.91 30.1094 1790.19 32.7949C1787.5 35.4805 1785.41 38.7747 1783.9 42.6777C1782.4 46.5807 1781.65 51.0208 1781.65 55.998C1781.65 61.4766 1782.36 66.597 1783.79 71.3594C1785.23 76.0859 1787.36 80.1859 1790.19 83.6592C1793.01 87.1325 1796.54 89.8717 1800.77 91.877C1805.03 93.8464 1809.99 94.8311 1815.64 94.8311C1817.69 94.8311 1819.73 94.6162 1821.77 94.1865C1823.81 93.7568 1825.76 93.1302 1827.62 92.3066C1829.52 91.4473 1831.29 90.4268 1832.94 89.2451C1834.62 88.0277 1836.14 86.6491 1837.5 85.1094L1838.1 85.4854L1833.8 96.4424C1831.11 97.4808 1828.14 98.2686 1824.88 98.8057C1821.66 99.3786 1818.4 99.665 1815.11 99.665C1808.48 99.665 1802.41 98.7161 1796.9 96.8184C1791.42 94.8848 1786.69 92.1634 1782.72 88.6543C1778.78 85.1452 1775.7 80.9378 1773.48 76.0322C1771.3 71.0908 1770.21 65.6123 1770.21 59.5967C1770.21 56.195 1770.63 52.847 1771.49 49.5527C1772.39 46.2585 1773.68 43.1253 1775.36 40.1533C1777.04 37.1813 1779.12 34.46 1781.59 31.9893C1784.06 29.4827 1786.87 27.3164 1790.02 25.4902C1793.21 23.6641 1796.7 22.2497 1800.5 21.2471C1804.33 20.2087 1808.47 19.6895 1812.91 19.6895C1819.82 19.6895 1826.23 20.7458 1832.13 22.8584L1835.79 32.7949Z" fill="#255834"/>
</g>
<defs>
<clipPath id="clip0_101_774">
<rect width="1874" height="121" fill="white"/>
</clipPath>
</defs>
</svg>
