<svg width="510" height="225" viewBox="0 0 510 225" fill="none" xmlns="http://www.w3.org/2000/svg">
<g clip-path="url(#clip0_312_3)">
<path d="M69.9854 32.7949L69.502 33.0098C66.709 30.4316 63.3431 28.3727 59.4043 26.833C55.5013 25.2933 51.2044 24.5234 46.5137 24.5234C42.002 24.5234 37.8662 25.2396 34.1064 26.6719C30.3467 28.0684 27.1061 30.1094 24.3848 32.7949C21.6992 35.4805 19.6045 38.7747 18.1006 42.6777C16.5967 46.5807 15.8447 51.0208 15.8447 55.998C15.8447 61.4766 16.5609 66.597 17.9932 71.3594C19.4255 76.0859 21.556 80.1859 24.3848 83.6592C27.2135 87.1325 30.7406 89.8717 34.9658 91.877C39.2269 93.8464 44.1862 94.8311 49.8438 94.8311C51.8848 94.8311 53.9258 94.6162 55.9668 94.1865C58.0078 93.7568 59.9593 93.1302 61.8213 92.3066C63.7191 91.4473 65.4915 90.4268 67.1387 89.2451C68.8216 88.0277 70.3434 86.6491 71.7041 85.1094L72.2949 85.4854L67.998 96.4424C65.3125 97.4808 62.3405 98.2686 59.082 98.8057C55.8594 99.3786 52.6009 99.665 49.3066 99.665C42.6823 99.665 36.613 98.7161 31.0986 96.8184C25.6201 94.8848 20.8936 92.1634 16.9189 88.6543C12.9801 85.1452 9.90072 80.9378 7.68066 76.0322C5.49642 71.0908 4.4043 65.6123 4.4043 59.5967C4.4043 56.195 4.83398 52.847 5.69336 49.5527C6.58854 46.2585 7.8776 43.1253 9.56055 40.1533C11.2435 37.1813 13.3203 34.46 15.791 31.9893C18.2617 29.4827 21.0726 27.3164 24.2236 25.4902C27.4105 23.6641 30.9017 22.2497 34.6973 21.2471C38.5286 20.2087 42.6644 19.6895 47.1045 19.6895C54.0153 19.6895 60.4248 20.7458 66.333 22.8584L69.9854 32.7949ZM92.3828 69.9629C93.099 70.0703 93.8151 70.1598 94.5312 70.2314C95.2832 70.2673 95.9993 70.2852 96.6797 70.2852C101.156 70.2852 104.539 69.0856 106.831 66.6865C109.159 64.2874 110.322 60.6888 110.322 55.8906C110.322 51.9518 109.391 48.8366 107.529 46.5449C105.703 44.2533 103 43.1074 99.4189 43.1074C98.2731 43.1074 97.2526 43.1611 96.3574 43.2686C95.498 43.3402 94.764 43.4297 94.1553 43.5371C93.4749 43.6803 92.8841 43.8236 92.3828 43.9668V69.9629ZM100.601 73.4541C99.8844 73.5615 99.1683 73.6331 98.4521 73.6689C97.7718 73.6689 97.0736 73.6689 96.3574 73.6689C95.7845 73.6689 95.1579 73.651 94.4775 73.6152C93.7972 73.5794 93.099 73.5257 92.3828 73.4541V76.0859C92.3828 79.2728 92.4186 82.0658 92.4902 84.4648C92.5618 86.8281 92.6514 88.8691 92.7588 90.5879C92.902 92.3066 93.0632 93.7568 93.2422 94.9385C93.4212 96.0843 93.6361 97.0332 93.8867 97.7852V98H81.4795V97.7852C81.7301 97.0332 81.945 96.0664 82.124 94.8848C82.3389 93.7031 82.5 92.2529 82.6074 90.5342C82.7507 88.7796 82.8581 86.7028 82.9297 84.3037C83.0013 81.9046 83.0371 79.0938 83.0371 75.8711V62.3359C83.0371 59.1133 83.0013 56.3203 82.9297 53.957C82.8581 51.5579 82.7507 49.499 82.6074 47.7803C82.5 46.0257 82.3389 44.5576 82.124 43.376C81.945 42.1943 81.7301 41.2275 81.4795 40.4756V40.2607C82.0524 40.2965 82.6611 40.3324 83.3057 40.3682C83.8428 40.404 84.4336 40.4398 85.0781 40.4756C85.7585 40.4756 86.4388 40.4756 87.1191 40.4756C88.265 40.4756 89.9658 40.3682 92.2217 40.1533C94.4775 39.9385 97.1273 39.8311 100.171 39.8311C103.25 39.8311 106.043 40.207 108.55 40.959C111.092 41.7109 113.258 42.7852 115.049 44.1816C116.875 45.5781 118.271 47.279 119.238 49.2842C120.241 51.2894 120.742 53.5273 120.742 55.998C120.742 57.9316 120.474 59.7041 119.937 61.3154C119.399 62.891 118.647 64.3232 117.681 65.6123C116.714 66.8656 115.568 67.9756 114.243 68.9424C112.918 69.9092 111.45 70.7507 109.839 71.4668L121.064 87.3115C122.031 88.6006 122.998 89.8359 123.965 91.0176C124.967 92.1992 125.916 93.2555 126.812 94.1865C127.707 95.1175 128.548 95.9053 129.336 96.5498C130.124 97.1585 130.786 97.5703 131.323 97.7852V98H117.251C117.251 97.6777 117.018 97.1227 116.553 96.335C116.123 95.5114 115.604 94.6699 114.995 93.8105C114.422 92.9154 113.831 92.056 113.223 91.2324C112.65 90.4089 112.22 89.8001 111.934 89.4062L100.601 73.4541ZM136.372 40.2607C139.881 40.2607 143.48 40.2607 147.168 40.2607C150.856 40.2249 154.276 40.1891 157.427 40.1533C160.578 40.0817 163.281 40.0101 165.537 39.9385C167.829 39.8669 169.333 39.7594 170.049 39.6162L167.954 45.417C166.987 45.1663 165.895 44.9336 164.678 44.7188C163.604 44.5397 162.297 44.3786 160.757 44.2354C159.253 44.0563 157.498 43.9668 155.493 43.9668C154.777 43.9668 153.953 44.0026 153.022 44.0742C152.091 44.11 151.196 44.1637 150.337 44.2354C149.334 44.307 148.314 44.3786 147.275 44.4502V65.666C150.176 65.6302 152.79 65.5586 155.117 65.4512C157.445 65.3438 159.432 65.2005 161.079 65.0215C163.013 64.8783 164.714 64.6813 166.182 64.4307L164.893 70.8223C162.923 70.5716 160.936 70.3568 158.931 70.1777C157.212 69.9987 155.314 69.8555 153.237 69.748C151.16 69.6048 149.173 69.5332 147.275 69.5332V93.918C150.605 93.918 153.667 93.7926 156.46 93.542C159.253 93.2555 161.688 92.9512 163.765 92.6289C166.2 92.235 168.402 91.7874 170.371 91.2861L169.136 98.3223C168.599 98.2865 167.721 98.2327 166.504 98.1611C165.322 98.1253 164.069 98.0895 162.744 98.0537C161.455 98.0537 160.238 98.0358 159.092 98C157.946 98 157.158 98 156.729 98H136.372V97.7852C136.623 97.0332 136.838 96.0664 137.017 94.8848C137.231 93.7031 137.393 92.2529 137.5 90.5342C137.643 88.7796 137.751 86.7028 137.822 84.3037C137.894 81.9046 137.93 79.0938 137.93 75.8711V62.3359C137.93 59.1133 137.894 56.3203 137.822 53.957C137.751 51.5579 137.643 49.499 137.5 47.7803C137.393 46.0257 137.231 44.5576 137.017 43.376C136.838 42.1943 136.623 41.2275 136.372 40.4756V40.2607ZM208.506 51.4863H207.432C207.217 50.8776 206.859 50.1077 206.357 49.1768C205.892 48.2458 205.247 47.3327 204.424 46.4375C203.636 45.5423 202.651 44.7904 201.47 44.1816C200.288 43.5371 198.874 43.2148 197.227 43.2148C195.973 43.2148 194.845 43.4297 193.843 43.8594C192.876 44.2533 192.052 44.8083 191.372 45.5244C190.692 46.2406 190.173 47.0999 189.814 48.1025C189.456 49.0693 189.277 50.1257 189.277 51.2715C189.277 53.1335 189.832 54.9059 190.942 56.5889C192.088 58.2718 193.503 59.9548 195.186 61.6377C196.868 63.2848 198.695 64.9499 200.664 66.6328C202.633 68.3158 204.46 70.0703 206.143 71.8965C207.826 73.7227 209.222 75.6562 210.332 77.6973C211.478 79.7383 212.051 81.9225 212.051 84.25C212.051 85.9688 211.729 87.7412 211.084 89.5674C210.475 91.3936 209.473 93.0407 208.076 94.5088C206.68 95.9769 204.889 97.1764 202.705 98.1074C200.521 99.0742 197.871 99.5576 194.756 99.5576C193.037 99.5576 191.39 99.4144 189.814 99.1279C188.275 98.8415 186.842 98.4834 185.518 98.0537C184.229 97.6598 183.065 97.2301 182.026 96.7646C181.024 96.2633 180.182 95.7979 179.502 95.3682L180.469 85.2168H181.597C181.955 86.4701 182.474 87.7233 183.154 88.9766C183.87 90.2298 184.73 91.3757 185.732 92.4141C186.771 93.4167 187.97 94.2402 189.331 94.8848C190.728 95.4935 192.321 95.7979 194.111 95.7979C195.365 95.7979 196.546 95.6009 197.656 95.207C198.766 94.7773 199.715 94.1865 200.503 93.4346C201.326 92.6826 201.971 91.7695 202.437 90.6953C202.902 89.5853 203.135 88.3499 203.135 86.9893C203.135 85.3779 202.812 83.8919 202.168 82.5312C201.523 81.1348 200.664 79.8099 199.59 78.5566C198.516 77.2676 197.298 76.0322 195.938 74.8506C194.613 73.6689 193.234 72.4694 191.802 71.252C190.369 70.0345 188.973 68.7992 187.612 67.5459C186.287 66.2568 185.088 64.8783 184.014 63.4102C182.939 61.9421 182.08 60.3844 181.436 58.7373C180.791 57.0544 180.469 55.2103 180.469 53.2051C180.469 51.0924 180.916 49.1947 181.812 47.5117C182.707 45.8288 183.888 44.4144 185.356 43.2686C186.825 42.0869 188.507 41.1917 190.405 40.583C192.303 39.9385 194.272 39.6162 196.313 39.6162C197.817 39.6162 199.214 39.7236 200.503 39.9385C201.828 40.1533 203.009 40.4219 204.048 40.7441C205.122 41.0306 206.053 41.335 206.841 41.6572C207.629 41.9437 208.273 42.1764 208.774 42.3555L208.506 51.4863ZM238.047 44.2354C234.788 44.2354 231.816 44.3786 229.131 44.665C226.481 44.9515 224.189 45.2559 222.256 45.5781C220.036 45.972 218.031 46.4017 216.24 46.8672L217.314 39.9385C217.852 40.0101 218.729 40.0638 219.946 40.0996C221.164 40.1354 222.435 40.1712 223.76 40.207C225.12 40.207 226.392 40.2249 227.573 40.2607C228.791 40.2607 229.632 40.2607 230.098 40.2607H255.503C255.933 40.2607 256.72 40.2607 257.866 40.2607C259.048 40.2249 260.301 40.207 261.626 40.207C262.951 40.1712 264.222 40.1354 265.439 40.0996C266.657 40.0638 267.534 40.0101 268.071 39.9385L269.146 46.8672C267.427 46.4017 265.457 45.972 263.237 45.5781C261.34 45.2559 259.048 44.9515 256.362 44.665C253.713 44.3786 250.723 44.2354 247.393 44.2354V75.8711C247.393 79.0938 247.428 81.9046 247.5 84.3037C247.572 86.7028 247.661 88.7796 247.769 90.5342C247.912 92.2529 248.073 93.7031 248.252 94.8848C248.431 96.0664 248.646 97.0332 248.896 97.7852V98H236.489V97.7852C236.74 97.0332 236.955 96.0664 237.134 94.8848C237.313 93.7031 237.474 92.2529 237.617 90.5342C237.76 88.7796 237.868 86.7028 237.939 84.3037C238.011 81.9046 238.047 79.0938 238.047 75.8711V44.2354ZM287.139 93.8105C290.469 93.8105 293.53 93.6852 296.323 93.4346C299.152 93.1481 301.623 92.8438 303.735 92.5215C306.206 92.1276 308.444 91.68 310.449 91.1787L309.214 98.3223C308.713 98.2865 307.853 98.2327 306.636 98.1611C305.454 98.1253 304.201 98.0895 302.876 98.0537C301.551 98.0537 300.316 98.0358 299.17 98C298.024 98 297.236 98 296.807 98H276.235V97.7852C276.486 97.0332 276.701 96.0664 276.88 94.8848C277.095 93.7031 277.256 92.2529 277.363 90.5342C277.507 88.7796 277.614 86.7028 277.686 84.3037C277.757 81.9046 277.793 79.0938 277.793 75.8711V62.3359C277.793 59.1133 277.757 56.3203 277.686 53.957C277.614 51.5579 277.507 49.499 277.363 47.7803C277.256 46.0257 277.095 44.5576 276.88 43.376C276.701 42.1943 276.486 41.2275 276.235 40.4756V40.2607H288.643V40.4756C288.392 41.2275 288.177 42.1943 287.998 43.376C287.819 44.5576 287.658 46.0257 287.515 47.7803C287.407 49.499 287.318 51.5579 287.246 53.957C287.174 56.3203 287.139 59.1133 287.139 62.3359V93.8105ZM354.814 79.8457C353.848 79.8457 352.63 79.8457 351.162 79.8457C349.73 79.8457 348.154 79.8457 346.436 79.8457C344.717 79.8457 342.944 79.8457 341.118 79.8457C339.292 79.8457 337.555 79.8636 335.908 79.8994C334.261 79.8994 332.757 79.9173 331.396 79.9531C330.036 79.9531 328.979 79.9531 328.228 79.9531L326.24 84.1426C325.381 85.8613 324.647 87.3652 324.038 88.6543C323.429 89.9076 322.928 91.0176 322.534 91.9844C322.14 92.9512 321.854 93.7926 321.675 94.5088C321.496 95.1891 321.406 95.8337 321.406 96.4424C321.406 96.8363 321.424 97.1406 321.46 97.3555C321.496 97.5345 321.549 97.6777 321.621 97.7852V98H312.168V97.7852C312.419 97.5345 312.812 96.9974 313.35 96.1738C313.887 95.3145 314.495 94.276 315.176 93.0586C315.892 91.8411 316.644 90.4626 317.432 88.9229C318.255 87.3831 319.061 85.7897 319.849 84.1426L341.763 38.918H345.791L367.275 84.1426C368.099 85.8613 368.923 87.5085 369.746 89.084C370.605 90.6595 371.393 92.0739 372.109 93.3271C372.826 94.5446 373.452 95.5651 373.989 96.3887C374.526 97.1764 374.884 97.6419 375.063 97.7852V98H361.313C361.385 97.7135 361.421 97.4629 361.421 97.248C361.421 96.9974 361.421 96.7288 361.421 96.4424C361.421 95.6546 361.242 94.7057 360.884 93.5957C360.562 92.4857 360.15 91.3577 359.648 90.2119C359.183 89.0303 358.682 87.9023 358.145 86.8281C357.643 85.7539 357.231 84.8587 356.909 84.1426L354.814 79.8457ZM330.322 75.6562H333.599C335.103 75.6562 336.696 75.6562 338.379 75.6562C340.098 75.6204 341.816 75.6025 343.535 75.6025C345.254 75.6025 346.919 75.6025 348.53 75.6025C350.142 75.5667 351.592 75.5488 352.881 75.5488L341.763 51.8086L330.322 75.6562ZM433.232 98.752H431.138L388.438 56.75V75.8711C388.438 79.0938 388.455 81.9046 388.491 84.3037C388.527 86.7028 388.581 88.7796 388.652 90.5342C388.76 92.2529 388.885 93.7031 389.028 94.8848C389.207 96.0664 389.422 97.0332 389.673 97.7852V98H381.616V97.7852C381.867 97.0332 382.082 96.0664 382.261 94.8848C382.44 93.7031 382.583 92.2529 382.69 90.5342C382.798 88.7796 382.869 86.7028 382.905 84.3037C382.941 81.9046 382.959 79.0938 382.959 75.8711V62.3359C382.959 59.1133 382.941 56.3203 382.905 53.957C382.869 51.5579 382.798 49.499 382.69 47.7803C382.583 46.0257 382.44 44.5576 382.261 43.376C382.082 42.1943 381.867 41.2275 381.616 40.4756V40.2607H384.946L427.7 82.4775V62.3359C427.7 59.1133 427.682 56.3203 427.646 53.957C427.611 51.5579 427.539 49.499 427.432 47.7803C427.36 46.0257 427.253 44.5576 427.109 43.376C426.966 42.1943 426.769 41.2275 426.519 40.4756V40.2607H434.521V40.4756C434.271 41.2275 434.056 42.1943 433.877 43.376C433.734 44.5576 433.608 46.0257 433.501 47.7803C433.394 49.499 433.322 51.5579 433.286 53.957C433.25 56.3203 433.232 59.1133 433.232 62.3359V98.752ZM459.766 44.0742C459.73 47.0104 459.694 49.8571 459.658 52.6143C459.658 53.7959 459.64 55.0133 459.604 56.2666C459.604 57.484 459.587 58.7015 459.551 59.9189C459.551 61.1364 459.551 62.3001 459.551 63.4102C459.551 64.4844 459.551 65.4512 459.551 66.3105C459.551 68.1009 459.551 70.2673 459.551 72.8096C459.587 75.3161 459.622 77.8942 459.658 80.5439C459.694 83.1937 459.748 85.7539 459.819 88.2246C459.891 90.6595 459.98 92.7005 460.088 94.3477C460.446 94.4193 460.911 94.4909 461.484 94.5625C462.057 94.5983 462.648 94.652 463.257 94.7236C463.901 94.7594 464.528 94.7952 465.137 94.8311C465.745 94.8311 466.265 94.8311 466.694 94.8311C468.664 94.8311 470.651 94.7057 472.656 94.4551C474.697 94.2044 476.649 93.7389 478.511 93.0586C480.409 92.3424 482.181 91.3757 483.828 90.1582C485.475 88.9408 486.908 87.3831 488.125 85.4854C489.378 83.5518 490.345 81.2422 491.025 78.5566C491.742 75.8353 492.1 72.6305 492.1 68.9424C492.1 60.8141 490.148 54.5479 486.245 50.1436C482.378 45.7393 476.595 43.5371 468.896 43.5371C468.145 43.5371 467.339 43.555 466.479 43.5908C465.656 43.6266 464.832 43.6803 464.009 43.752C463.185 43.7878 462.397 43.8415 461.646 43.9131C460.929 43.9847 460.303 44.0384 459.766 44.0742ZM448.647 40.1533C449.507 40.1891 450.312 40.207 451.064 40.207C451.709 40.2428 452.336 40.2607 452.944 40.2607C453.553 40.2607 454.001 40.2607 454.287 40.2607C454.788 40.2607 455.684 40.2428 456.973 40.207C458.262 40.1712 459.712 40.1354 461.323 40.0996C462.97 40.028 464.689 39.9743 466.479 39.9385C468.306 39.8669 469.989 39.8311 471.528 39.8311C475.718 39.8311 479.71 40.3145 483.506 41.2812C487.301 42.248 490.632 43.8415 493.496 46.0615C496.396 48.2458 498.688 51.1283 500.371 54.709C502.054 58.2539 502.896 62.6403 502.896 67.8682C502.896 73.4899 501.929 78.2523 499.995 82.1553C498.062 86.0583 495.448 89.2451 492.153 91.7158C488.859 94.1507 485.028 95.9232 480.659 97.0332C476.326 98.1074 471.743 98.6445 466.909 98.6445C465.763 98.6445 464.331 98.6087 462.612 98.5371C460.894 98.4655 459.139 98.3939 457.349 98.3223C455.558 98.2507 453.857 98.179 452.246 98.1074C450.671 98.0358 449.471 98 448.647 98V97.7852C448.898 97.0332 449.113 96.0664 449.292 94.8848C449.507 93.7031 449.668 92.2529 449.775 90.5342C449.919 88.7796 450.026 86.7028 450.098 84.3037C450.169 81.9046 450.205 79.0938 450.205 75.8711V62.3359C450.205 59.1133 450.169 56.3024 450.098 53.9033C450.026 51.5042 449.919 49.4274 449.775 47.6729C449.668 45.9183 449.507 44.4502 449.292 43.2686C449.113 42.0869 448.898 41.1201 448.647 40.3682V40.1533ZM69.9854 152.795L69.502 153.01C66.709 150.432 63.3431 148.373 59.4043 146.833C55.5013 145.293 51.2044 144.523 46.5137 144.523C42.002 144.523 37.8662 145.24 34.1064 146.672C30.3467 148.068 27.1061 150.109 24.3848 152.795C21.6992 155.48 19.6045 158.775 18.1006 162.678C16.5967 166.581 15.8447 171.021 15.8447 175.998C15.8447 181.477 16.5609 186.597 17.9932 191.359C19.4255 196.086 21.556 200.186 24.3848 203.659C27.2135 207.132 30.7406 209.872 34.9658 211.877C39.2269 213.846 44.1862 214.831 49.8438 214.831C51.8848 214.831 53.9258 214.616 55.9668 214.187C58.0078 213.757 59.9593 213.13 61.8213 212.307C63.7191 211.447 65.4915 210.427 67.1387 209.245C68.8216 208.028 70.3434 206.649 71.7041 205.109L72.2949 205.485L67.998 216.442C65.3125 217.481 62.3405 218.269 59.082 218.806C55.8594 219.379 52.6009 219.665 49.3066 219.665C42.6823 219.665 36.613 218.716 31.0986 216.818C25.6201 214.885 20.8936 212.163 16.9189 208.654C12.9801 205.145 9.90072 200.938 7.68066 196.032C5.49642 191.091 4.4043 185.612 4.4043 179.597C4.4043 176.195 4.83398 172.847 5.69336 169.553C6.58854 166.258 7.8776 163.125 9.56055 160.153C11.2435 157.181 13.3203 154.46 15.791 151.989C18.2617 149.483 21.0726 147.316 24.2236 145.49C27.4105 143.664 30.9017 142.25 34.6973 141.247C38.5286 140.209 42.6644 139.689 47.1045 139.689C54.0153 139.689 60.4248 140.746 66.333 142.858L69.9854 152.795ZM116.553 199.846C115.586 199.846 114.368 199.846 112.9 199.846C111.468 199.846 109.893 199.846 108.174 199.846C106.455 199.846 104.683 199.846 102.856 199.846C101.03 199.846 99.2936 199.864 97.6465 199.899C95.9993 199.899 94.4954 199.917 93.1348 199.953C91.7741 199.953 90.7178 199.953 89.9658 199.953L87.9785 204.143C87.1191 205.861 86.3851 207.365 85.7764 208.654C85.1676 209.908 84.6663 211.018 84.2725 211.984C83.8786 212.951 83.5921 213.793 83.4131 214.509C83.234 215.189 83.1445 215.834 83.1445 216.442C83.1445 216.836 83.1624 217.141 83.1982 217.355C83.234 217.535 83.2878 217.678 83.3594 217.785V218H73.9062V217.785C74.1569 217.535 74.5508 216.997 75.0879 216.174C75.625 215.314 76.2337 214.276 76.9141 213.059C77.6302 211.841 78.3822 210.463 79.1699 208.923C79.9935 207.383 80.7992 205.79 81.5869 204.143L103.501 158.918H107.529L129.014 204.143C129.837 205.861 130.661 207.508 131.484 209.084C132.344 210.66 133.132 212.074 133.848 213.327C134.564 214.545 135.19 215.565 135.728 216.389C136.265 217.176 136.623 217.642 136.802 217.785V218H123.052C123.123 217.714 123.159 217.463 123.159 217.248C123.159 216.997 123.159 216.729 123.159 216.442C123.159 215.655 122.98 214.706 122.622 213.596C122.3 212.486 121.888 211.358 121.387 210.212C120.921 209.03 120.42 207.902 119.883 206.828C119.382 205.754 118.97 204.859 118.647 204.143L116.553 199.846ZM92.0605 195.656H95.3369C96.8408 195.656 98.4342 195.656 100.117 195.656C101.836 195.62 103.555 195.603 105.273 195.603C106.992 195.603 108.657 195.603 110.269 195.603C111.88 195.567 113.33 195.549 114.619 195.549L103.501 171.809L92.0605 195.656ZM154.258 191.843C154.974 191.95 155.672 192.058 156.353 192.165C157.069 192.237 157.767 192.272 158.447 192.272C160.488 192.272 162.35 191.968 164.033 191.359C165.752 190.715 167.202 189.766 168.384 188.513C169.601 187.259 170.532 185.666 171.177 183.732C171.857 181.799 172.197 179.543 172.197 176.965C172.197 174.888 171.965 173.008 171.499 171.325C171.034 169.642 170.335 168.21 169.404 167.028C168.509 165.811 167.381 164.88 166.021 164.235C164.66 163.555 163.084 163.215 161.294 163.215C160.148 163.215 159.128 163.269 158.232 163.376C157.373 163.448 156.639 163.537 156.03 163.645C155.35 163.788 154.759 163.931 154.258 164.074V191.843ZM154.258 195.549C154.258 198.771 154.294 201.6 154.365 204.035C154.437 206.47 154.526 208.583 154.634 210.373C154.777 212.128 154.938 213.614 155.117 214.831C155.296 216.049 155.511 217.033 155.762 217.785V218H143.354V217.785C143.605 217.033 143.82 216.066 143.999 214.885C144.214 213.703 144.375 212.253 144.482 210.534C144.626 208.78 144.733 206.703 144.805 204.304C144.876 201.905 144.912 199.094 144.912 195.871V182.336C144.912 179.113 144.876 176.32 144.805 173.957C144.733 171.558 144.626 169.499 144.482 167.78C144.375 166.026 144.214 164.558 143.999 163.376C143.82 162.194 143.605 161.228 143.354 160.476V160.261C144.142 160.297 144.93 160.332 145.718 160.368C146.398 160.404 147.114 160.44 147.866 160.476C148.654 160.476 149.388 160.476 150.068 160.476C151.214 160.476 152.897 160.368 155.117 160.153C157.373 159.938 160.023 159.831 163.066 159.831C165.859 159.831 168.455 160.207 170.854 160.959C173.254 161.675 175.312 162.749 177.031 164.182C178.786 165.614 180.146 167.368 181.113 169.445C182.116 171.486 182.617 173.85 182.617 176.535C182.617 179.686 182.008 182.479 180.791 184.914C179.574 187.313 177.909 189.336 175.796 190.983C173.719 192.595 171.266 193.812 168.438 194.636C165.609 195.459 162.601 195.871 159.414 195.871C157.731 195.871 156.012 195.764 154.258 195.549ZM193.896 182.336C193.896 179.113 193.861 176.32 193.789 173.957C193.717 171.558 193.61 169.499 193.467 167.78C193.359 166.026 193.198 164.558 192.983 163.376C192.804 162.194 192.59 161.228 192.339 160.476V160.261H204.8V160.476C204.549 161.228 204.316 162.194 204.102 163.376C203.923 164.558 203.761 166.026 203.618 167.78C203.511 169.499 203.421 171.558 203.35 173.957C203.278 176.32 203.242 179.113 203.242 182.336V195.871C203.242 199.094 203.278 201.905 203.35 204.304C203.421 206.703 203.511 208.78 203.618 210.534C203.761 212.253 203.923 213.703 204.102 214.885C204.316 216.066 204.549 217.033 204.8 217.785V218H192.339V217.785C192.59 217.033 192.804 216.066 192.983 214.885C193.198 213.703 193.359 212.253 193.467 210.534C193.61 208.78 193.717 206.703 193.789 204.304C193.861 201.905 193.896 199.094 193.896 195.871V182.336ZM234.502 164.235C231.243 164.235 228.271 164.379 225.586 164.665C222.936 164.951 220.645 165.256 218.711 165.578C216.491 165.972 214.486 166.402 212.695 166.867L213.77 159.938C214.307 160.01 215.184 160.064 216.401 160.1C217.619 160.135 218.89 160.171 220.215 160.207C221.576 160.207 222.847 160.225 224.028 160.261C225.246 160.261 226.087 160.261 226.553 160.261H251.958C252.388 160.261 253.175 160.261 254.321 160.261C255.503 160.225 256.756 160.207 258.081 160.207C259.406 160.171 260.677 160.135 261.895 160.1C263.112 160.064 263.989 160.01 264.526 159.938L265.601 166.867C263.882 166.402 261.912 165.972 259.692 165.578C257.795 165.256 255.503 164.951 252.817 164.665C250.168 164.379 247.178 164.235 243.848 164.235V195.871C243.848 199.094 243.883 201.905 243.955 204.304C244.027 206.703 244.116 208.78 244.224 210.534C244.367 212.253 244.528 213.703 244.707 214.885C244.886 216.066 245.101 217.033 245.352 217.785V218H232.944V217.785C233.195 217.033 233.41 216.066 233.589 214.885C233.768 213.703 233.929 212.253 234.072 210.534C234.215 208.78 234.323 206.703 234.395 204.304C234.466 201.905 234.502 199.094 234.502 195.871V164.235ZM304.756 199.846C303.789 199.846 302.572 199.846 301.104 199.846C299.671 199.846 298.096 199.846 296.377 199.846C294.658 199.846 292.886 199.846 291.06 199.846C289.233 199.846 287.497 199.864 285.85 199.899C284.202 199.899 282.699 199.917 281.338 199.953C279.977 199.953 278.921 199.953 278.169 199.953L276.182 204.143C275.322 205.861 274.588 207.365 273.979 208.654C273.371 209.908 272.869 211.018 272.476 211.984C272.082 212.951 271.795 213.793 271.616 214.509C271.437 215.189 271.348 215.834 271.348 216.442C271.348 216.836 271.366 217.141 271.401 217.355C271.437 217.535 271.491 217.678 271.562 217.785V218H262.109V217.785C262.36 217.535 262.754 216.997 263.291 216.174C263.828 215.314 264.437 214.276 265.117 213.059C265.833 211.841 266.585 210.463 267.373 208.923C268.197 207.383 269.002 205.79 269.79 204.143L291.704 158.918H295.732L317.217 204.143C318.04 205.861 318.864 207.508 319.688 209.084C320.547 210.66 321.335 212.074 322.051 213.327C322.767 214.545 323.394 215.565 323.931 216.389C324.468 217.176 324.826 217.642 325.005 217.785V218H311.255C311.326 217.714 311.362 217.463 311.362 217.248C311.362 216.997 311.362 216.729 311.362 216.442C311.362 215.655 311.183 214.706 310.825 213.596C310.503 212.486 310.091 211.358 309.59 210.212C309.124 209.03 308.623 207.902 308.086 206.828C307.585 205.754 307.173 204.859 306.851 204.143L304.756 199.846ZM280.264 195.656H283.54C285.044 195.656 286.637 195.656 288.32 195.656C290.039 195.62 291.758 195.603 293.477 195.603C295.195 195.603 296.86 195.603 298.472 195.603C300.083 195.567 301.533 195.549 302.822 195.549L291.704 171.809L280.264 195.656ZM342.461 213.811C345.791 213.811 348.853 213.685 351.646 213.435C354.474 213.148 356.945 212.844 359.058 212.521C361.528 212.128 363.766 211.68 365.771 211.179L364.536 218.322C364.035 218.286 363.175 218.233 361.958 218.161C360.776 218.125 359.523 218.09 358.198 218.054C356.873 218.054 355.638 218.036 354.492 218C353.346 218 352.559 218 352.129 218H331.558V217.785C331.808 217.033 332.023 216.066 332.202 214.885C332.417 213.703 332.578 212.253 332.686 210.534C332.829 208.78 332.936 206.703 333.008 204.304C333.079 201.905 333.115 199.094 333.115 195.871V182.336C333.115 179.113 333.079 176.32 333.008 173.957C332.936 171.558 332.829 169.499 332.686 167.78C332.578 166.026 332.417 164.558 332.202 163.376C332.023 162.194 331.808 161.228 331.558 160.476V160.261H343.965V160.476C343.714 161.228 343.499 162.194 343.32 163.376C343.141 164.558 342.98 166.026 342.837 167.78C342.729 169.499 342.64 171.558 342.568 173.957C342.497 176.32 342.461 179.113 342.461 182.336V213.811Z" fill="#255834"/>
</g>
<defs>
<clipPath id="clip0_312_3">
<rect width="510" height="225" fill="white"/>
</clipPath>
</defs>
</svg>
